<mxfile host="app.diagrams.net" modified="2021-09-01T10:24:30.569Z" agent="5.0 (Macintosh; Intel Mac OS X 10_15_7) AppleWebKit/605.1.15 (KHTML, like Gecko) Version/14.1.1 Safari/605.1.15" etag="rCflk4qEmmGCpK_oZ_l-" version="15.0.4" type="github">
  <diagram id="IUh2nra8z36MkZfrcmV6" name="Page-1">
    <mxGraphModel dx="946" dy="498" grid="1" gridSize="10" guides="1" tooltips="1" connect="1" arrows="1" fold="1" page="1" pageScale="1" pageWidth="827" pageHeight="1169" math="0" shadow="0">
      <root>
        <mxCell id="0" />
        <mxCell id="1" parent="0" />
        <mxCell id="DKYZGHU1aJ9SWhU17CoF-4" style="edgeStyle=orthogonalEdgeStyle;rounded=0;orthogonalLoop=1;jettySize=auto;html=1;entryX=0.5;entryY=0;entryDx=0;entryDy=0;" edge="1" parent="1" source="DKYZGHU1aJ9SWhU17CoF-1" target="DKYZGHU1aJ9SWhU17CoF-3">
          <mxGeometry relative="1" as="geometry" />
        </mxCell>
        <mxCell id="DKYZGHU1aJ9SWhU17CoF-5" style="edgeStyle=orthogonalEdgeStyle;rounded=0;orthogonalLoop=1;jettySize=auto;html=1;entryX=0.5;entryY=0;entryDx=0;entryDy=0;" edge="1" parent="1" source="DKYZGHU1aJ9SWhU17CoF-1" target="DKYZGHU1aJ9SWhU17CoF-2">
          <mxGeometry relative="1" as="geometry" />
        </mxCell>
        <mxCell id="DKYZGHU1aJ9SWhU17CoF-1" value="" style="rounded=0;whiteSpace=wrap;html=1;" vertex="1" parent="1">
          <mxGeometry x="350" y="230" width="120" height="60" as="geometry" />
        </mxCell>
        <mxCell id="DKYZGHU1aJ9SWhU17CoF-2" value="" style="rhombus;whiteSpace=wrap;html=1;" vertex="1" parent="1">
          <mxGeometry x="550" y="290" width="80" height="80" as="geometry" />
        </mxCell>
        <mxCell id="DKYZGHU1aJ9SWhU17CoF-3" value="" style="shape=process;whiteSpace=wrap;html=1;backgroundOutline=1;" vertex="1" parent="1">
          <mxGeometry x="170" y="300" width="120" height="60" as="geometry" />
        </mxCell>
      </root>
    </mxGraphModel>
  </diagram>
</mxfile>
